<svg xmlns="http://www.w3.org/2000/svg" viewBox="0 0 32 32" fill="none">
  <rect width="32" height="32" rx="8" fill="#0ea5e9"/>
  <path fill="white" d="M8 18c0-1.5 1-2.5 2.3-2.5 1.2 0 2.2 1 2.2 2.5 0 1.6-1 2.6-2.2 2.6C9 21.6 8 20.6 8 18zm16 0c0-1.5-1-2.5-2.3-2.5-1.2 0-2.2 1-2.2 2.5 0 1.6 1 2.6 2.2 2.6 1.3 0 2.3-1 2.3-2.6zm-8-6c-1.4 0-2.5-1.2-2.5-2.7C13.5 7.8 14.6 6.5 16 6.5s2.5 1.3 2.5 2.8c0 1.5-1.1 2.7-2.5 2.7zm-5.5 1.2c-1.2 0-2.2-1.1-2.2-2.5 0-1.4 1-2.5 2.2-2.5 1.3 0 2.3 1.1 2.3 2.5 0 1.4-1 2.5-2.3 2.5zm11 0c1.2 0 2.2-1.1 2.2-2.5 0-1.4-1-2.5-2.2-2.5-1.3 0-2.3 1.1-2.3 2.5 0 1.4 1 2.5 2.3 2.5zM16 22.5c-2.8 0-4.5 1.8-4.5 3.2 0 .6.5 1.1 1.1 1.1h6.8c.6 0 1.1-.5 1.1-1.1 0-1.4-1.7-3.2-4.5-3.2z"/>
</svg>
